<svg width="200" height="171" viewBox="0 0 200 171" fill="none" xmlns="http://www.w3.org/2000/svg">
<g clip-path="url(#clip0_71_1812)">
<path d="M71.74 99.3916C78.594 87.5083 91.6682 78.3838 105.508 79.2628C95.2995 90.2046 89.3464 104.353 88.7025 119.204C88.4753 124.933 88.8277 131.327 84.9686 135.617C82.5675 138.286 78.8972 139.578 75.2886 139.85C71.6798 140.121 68.0718 139.478 64.5112 138.838L63.6475 139.099C63.3186 125.434 64.8859 111.275 71.74 99.3916Z" fill="#F0F0F0"/>
<path d="M105.529 79.549C95.2944 84.405 86.5676 92.515 81.2104 102.406C80.0522 104.544 79.0661 106.813 78.636 109.211C78.2056 111.611 78.5062 113.895 79.3378 116.174C80.0981 118.258 81.1205 120.303 81.3536 122.532C81.5994 124.882 80.7221 127.079 79.1429 128.823C77.2107 130.957 74.6159 132.279 72.0328 133.485C69.1648 134.824 66.1643 136.17 64.1329 138.67C63.8868 138.972 63.4245 138.578 63.6702 138.276C67.2045 133.928 73.2542 133.11 77.4494 129.608C79.4069 127.973 80.8766 125.747 80.7838 123.139C80.7027 120.859 79.6502 118.75 78.8619 116.646C78.0342 114.438 77.6214 112.218 77.9183 109.863C78.2219 107.455 79.1201 105.143 80.2177 102.985C82.6932 98.118 86.081 93.6495 89.9619 89.7868C94.4222 85.3467 99.6202 81.6914 105.331 78.9789C105.685 78.8111 105.88 79.3823 105.529 79.549Z" fill="white"/>
<path d="M82.7796 99.1002C81.2106 97.9695 80.1005 96.3259 79.6475 94.463C79.1945 92.6 79.4282 90.639 80.3068 88.9302C80.4858 88.585 81.0384 88.8429 80.8592 89.1886C80.0381 90.7783 79.8206 92.605 80.246 94.3389C80.6714 96.0729 81.7116 97.5998 83.179 98.6442C83.4976 98.8715 83.0963 99.3263 82.7796 99.1002Z" fill="white"/>
<path d="M78.8111 115.168C82.7426 114.602 86.3132 112.596 88.8109 109.55C89.0581 109.248 89.5205 109.642 89.2736 109.944C86.6685 113.109 82.9484 115.189 78.8559 115.769C78.4658 115.824 78.4231 115.223 78.8111 115.168Z" fill="white"/>
<path d="M94.7242 86.088C95.2388 86.6501 95.887 87.0776 96.6106 87.3318C97.3342 87.5861 98.1106 87.6592 98.8699 87.5447C99.2592 87.4848 99.3014 88.086 98.9147 88.1455C98.0751 88.2682 97.2178 88.1864 96.4177 87.9072C95.6176 87.6281 94.8991 87.16 94.3248 86.544C94.2658 86.4904 94.2296 86.4167 94.2237 86.3378C94.2179 86.2588 94.2427 86.1807 94.2932 86.1192C94.3464 86.059 94.4215 86.022 94.5022 86.0162C94.5829 86.0104 94.6627 86.0361 94.7242 86.088Z" fill="white"/>
<path d="M133.046 116.751C132.804 116.795 132.562 116.839 132.318 116.888C129.068 117.499 125.874 118.369 122.767 119.49C122.526 119.573 122.282 119.66 122.043 119.75C114.588 122.529 107.72 126.648 101.79 131.898C99.4321 133.989 97.2391 136.254 95.23 138.673C92.4555 142.014 89.7169 145.854 86.0913 148.033C85.7156 148.264 85.3258 148.472 84.924 148.656L64.0379 140.118C64.0003 140.075 63.9605 140.037 63.9227 139.994L63.073 139.69C63.1678 139.558 63.269 139.424 63.3637 139.292C63.4184 139.215 63.4777 139.14 63.5324 139.063C63.5703 139.013 63.6084 138.962 63.6397 138.915C63.6523 138.898 63.6651 138.881 63.6756 138.869C63.7069 138.821 63.7411 138.78 63.7704 138.737C64.3339 137.982 64.9037 137.229 65.4798 136.48C65.4818 136.475 65.4818 136.475 65.4885 136.472C69.8934 130.77 74.82 125.38 80.42 120.899C80.5885 120.764 80.7588 120.625 80.9369 120.494C83.4724 118.488 86.1702 116.689 89.0031 115.116C90.5571 114.26 92.1541 113.481 93.7879 112.784C98.0131 110.99 102.498 109.863 107.079 109.443C116.21 108.607 125.512 110.659 132.515 116.313C132.694 116.458 132.869 116.601 133.046 116.751Z" fill="#F0F0F0"/>
<path d="M132.889 116.993C121.751 114.797 109.829 116.094 99.5097 120.812C97.2786 121.832 95.1055 123.058 93.2969 124.718C91.4874 126.379 90.332 128.381 89.6037 130.694C88.9379 132.809 88.5054 135.048 87.3296 136.967C86.0902 138.989 84.0475 140.223 81.7214 140.678C78.8753 141.235 75.9958 140.751 73.1966 140.181C70.0886 139.548 66.8706 138.843 63.7219 139.633C63.3404 139.729 63.212 139.139 63.5929 139.044C69.071 137.669 74.4008 140.607 79.8901 140.299C82.4515 140.156 84.9846 139.251 86.5037 137.113C87.832 135.244 88.2801 132.936 88.9354 130.789C89.6236 128.534 90.6504 126.516 92.3256 124.813C94.0393 123.07 96.1684 121.757 98.3632 120.685C103.313 118.268 108.748 116.711 114.206 115.929C120.479 115.031 126.863 115.197 133.079 116.42C133.464 116.496 133.271 117.068 132.889 116.993Z" fill="white"/>
<path d="M102.782 119.104C102.22 117.27 102.338 115.299 103.114 113.543C103.89 111.786 105.275 110.359 107.02 109.516C107.374 109.347 107.658 109.881 107.303 110.05C105.677 110.832 104.387 112.162 103.668 113.799C102.948 115.436 102.846 117.272 103.379 118.977C103.495 119.347 102.897 119.472 102.782 119.104Z" fill="white"/>
<path d="M89.7981 129.578C93.2831 131.459 97.3593 131.976 101.214 131.026C101.596 130.932 101.724 131.521 101.343 131.615C97.3298 132.596 93.089 132.049 89.4668 130.084C89.1217 129.897 89.4549 129.391 89.7981 129.578Z" fill="white"/>
<path d="M120.268 115.802C120.335 116.556 120.592 117.282 121.014 117.915C121.436 118.547 122.012 119.066 122.688 119.425C123.035 119.608 122.702 120.113 122.357 119.932C121.611 119.531 120.977 118.957 120.508 118.26C120.04 117.562 119.752 116.762 119.67 115.929C119.656 115.851 119.672 115.771 119.715 115.705C119.759 115.638 119.827 115.59 119.904 115.571C119.984 115.555 120.066 115.57 120.134 115.613C120.202 115.656 120.25 115.724 120.268 115.802Z" fill="white"/>
<path d="M93.2596 130.837C90.3345 116.898 86.6782 112.251 86.6782 112.251L85.2814 111.183L83.6017 109.897L83.6098 109.732L83.2114 109.598L83.1178 109.527L82.9644 109.41L82.9398 109.437L82.8877 109.49L75.2865 106.943L65.6432 103.715L61.1777 97.9941C60.4505 97.0624 59.5142 96.3094 58.4422 95.7941C57.3703 95.2787 56.1918 95.0151 54.9991 95.0238L40.7378 95.1278C38.8095 95.1418 36.9563 95.8663 35.5425 97.1588L26.1688 105.728L11.5628 112.604L11.5381 112.579L11.3847 112.687L9.12797 113.751L9.2211 114.229L7.8243 115.222C7.8243 115.222 4.168 119.547 1.24295 132.517C0.49885 135.817 0.132576 142.897 0.000371524 151.621C-0.00626912 152.062 0.0761714 152.5 0.242897 152.91C0.409623 153.32 0.65731 153.692 0.971554 154.007C1.2858 154.321 1.66033 154.571 2.07338 154.741C2.48642 154.912 2.92974 155 3.37755 155H81.3914L91.1285 155C91.576 155 92.019 154.912 92.4318 154.742C92.8446 154.571 93.2189 154.322 93.5331 154.008C93.8473 153.694 94.095 153.321 94.262 152.912C94.429 152.503 94.5118 152.065 94.5057 151.624C94.3766 142.131 94.0104 134.416 93.2596 130.837Z" fill="#3F3D56"/>
<path d="M103.269 36.1562C100.234 36.1563 97.3231 37.3446 95.1769 39.4599C93.0307 41.5752 91.825 44.4442 91.825 47.4357C91.825 50.4272 93.0307 53.2961 95.1769 55.4114C97.3231 57.5267 100.234 58.7151 103.269 58.7151H188.556C191.591 58.7151 194.502 57.5267 196.648 55.4114C198.794 53.2961 200 50.4272 200 47.4357C200 44.4442 198.794 41.5752 196.648 39.4599C194.502 37.3446 191.591 36.1563 188.556 36.1562H103.269Z" fill="#E5E5E5"/>
<path d="M103.269 38.4391C100.848 38.4391 98.5263 39.3869 96.8144 41.0742C95.1026 42.7614 94.1409 45.0497 94.1409 47.4358C94.1409 49.8218 95.1026 52.1102 96.8144 53.7974C98.5263 55.4846 100.848 56.4325 103.269 56.4325H188.556C190.977 56.4325 193.298 55.4846 195.01 53.7974C196.722 52.1102 197.684 49.8218 197.684 47.4358C197.684 45.0497 196.722 42.7614 195.01 41.0742C193.298 39.3869 190.977 38.4391 188.556 38.4391H103.269Z" fill="white"/>
<path d="M50.108 89.7432C60.4267 89.7432 68.7916 81.4987 68.7916 71.3286C68.7916 61.1584 60.4267 52.9139 50.108 52.9139C39.7893 52.9139 31.4243 61.1584 31.4243 71.3286C31.4243 81.4987 39.7893 89.7432 50.108 89.7432Z" fill="#9E616A"/>
<path d="M45.3284 88.8416C45.2486 88.6684 45.169 88.4946 45.0896 88.3202C45.1202 88.3212 45.1505 88.3255 45.1811 88.3263L45.3284 88.8416Z" fill="#2F2E41"/>
<path d="M30.9048 53.7514C31.8498 53.0084 32.9542 52.3248 34.1624 52.3632C35.3705 52.4016 36.5957 53.4771 36.3454 54.6427C38.5646 50.77 42.0968 47.7915 46.3221 46.23C50.5474 44.6684 55.1957 44.6236 59.4512 46.1034C62.454 47.1475 65.3987 49.2364 66.0885 52.3003C66.2656 53.0867 66.3036 53.9491 66.8018 54.5878C67.43 55.393 68.632 55.5752 69.6217 55.2919C69.6316 55.2891 69.6415 55.2862 69.6513 55.2833C69.8185 55.227 69.999 55.2215 70.1694 55.2674C70.3398 55.3133 70.4924 55.4086 70.6072 55.5409C70.7221 55.6732 70.7941 55.8364 70.8138 56.0094C70.8336 56.1825 70.8002 56.3574 70.718 56.5115L69.8684 58.0733C70.9394 58.3086 72.0522 58.2852 73.1121 58.0053C73.2882 57.9598 73.4743 57.969 73.6447 58.0319C73.8153 58.0947 73.9619 58.208 74.0645 58.3561C74.1671 58.5043 74.2206 58.6802 74.2178 58.8596C74.215 59.0389 74.1559 59.2131 74.0487 59.3581C71.2472 63.1491 66.5667 65.5971 61.7903 65.5683C58.3956 65.5479 54.9659 64.3948 51.6621 65.1642C50.3839 65.4619 49.1896 66.0378 48.1668 66.8497C47.1439 67.6616 46.3185 68.6889 45.751 69.8563C45.1836 71.0236 44.8884 72.3014 44.8874 73.5958C44.8863 74.8902 45.1792 76.1684 45.7447 77.3367C44.7298 76.2425 42.7678 76.5016 41.7295 77.5744C40.6914 78.6472 40.4226 80.2484 40.5272 81.7274C40.6872 83.9894 41.5864 86.1208 42.5343 88.1953C34.5865 87.9487 27.0692 82.4537 24.5388 75.0216C21.9979 67.5584 24.6609 58.6606 30.9048 53.7514Z" fill="#2F2E41"/>
<path opacity="0.2" d="M18.3896 126.629L23.63 154.73L26.7743 155L18.3896 126.629Z" fill="black"/>
<path opacity="0.2" d="M76.1129 124.51L70.8726 154.71L67.7283 155L76.1129 124.51Z" fill="black"/>
<path d="M35.3743 44.294C34.3696 44.7075 33.3212 44.2543 32.8815 43.2165C32.4351 42.1628 32.852 41.0932 33.8729 40.6731C34.8938 40.2529 35.9236 40.7072 36.3772 41.7778C36.824 42.8325 36.4116 43.8671 35.3743 44.294ZM33.4496 38.599L32.6507 38.9278C32.4512 39.009 32.228 39.0134 32.0253 38.9401C31.8226 38.8668 31.6552 38.7212 31.5561 38.5321L31.5166 38.456C30.657 36.928 30.5586 35.071 31.2256 32.9394C31.8436 31.0273 32.1002 29.6825 31.5841 28.4642C30.9873 27.0556 29.713 26.6144 28.0879 27.2535C27.4576 27.5129 27.2571 27.5088 26.7611 27.9938C26.6532 28.1005 26.5246 28.1848 26.3829 28.2415C26.2413 28.2983 26.0895 28.3263 25.9366 28.324C25.7889 28.3222 25.6429 28.2912 25.5076 28.2327C25.3722 28.1742 25.2502 28.0895 25.1488 27.9835C24.9534 27.7793 24.844 27.5096 24.8425 27.2289C24.8411 26.9482 24.9478 26.6775 25.141 26.4713C25.9747 25.6112 26.9803 24.9307 28.0942 24.4728C31.5858 23.0358 33.3434 25.1573 34.1478 27.0558C34.9345 28.9128 34.492 30.6357 33.7809 32.8671C33.185 34.7213 33.2197 36.0952 33.8966 37.4612C33.9455 37.5645 33.9726 37.6765 33.9765 37.7904C33.9804 37.9043 33.9609 38.0177 33.9191 38.124C33.8774 38.2303 33.8143 38.3271 33.7336 38.4088C33.6529 38.4904 33.5563 38.5551 33.4496 38.599Z" fill="#66A9FC"/>
<path d="M122.108 52.8152H105.139C105.085 52.8156 105.032 52.8054 104.982 52.7853C104.932 52.7652 104.886 52.7356 104.848 52.6982C104.81 52.6607 104.78 52.6162 104.759 52.5672C104.738 52.5181 104.728 52.4655 104.728 52.4124C104.728 52.3592 104.738 52.3066 104.759 52.2576C104.78 52.2085 104.81 52.164 104.848 52.1265C104.886 52.0891 104.932 52.0595 104.982 52.0394C105.032 52.0193 105.085 52.0092 105.139 52.0095H122.108C122.216 52.0103 122.319 52.053 122.395 52.1285C122.471 52.2039 122.514 52.306 122.514 52.4124C122.514 52.5187 122.471 52.6208 122.395 52.6962C122.319 52.7717 122.216 52.8145 122.108 52.8152Z" fill="#66A9FC"/>
<path d="M143.634 52.9495H126.665C126.611 52.9498 126.558 52.9397 126.508 52.9196C126.458 52.8995 126.412 52.8699 126.374 52.8325C126.336 52.795 126.306 52.7505 126.285 52.7014C126.264 52.6524 126.253 52.5998 126.253 52.5466C126.253 52.4935 126.264 52.4409 126.285 52.3918C126.306 52.3428 126.336 52.2983 126.374 52.2608C126.412 52.2234 126.458 52.1938 126.508 52.1737C126.558 52.1536 126.611 52.1434 126.665 52.1438H143.634C143.688 52.1434 143.741 52.1536 143.791 52.1737C143.841 52.1938 143.886 52.2234 143.925 52.2608C143.963 52.2983 143.993 52.3428 144.014 52.3918C144.035 52.4409 144.045 52.4935 144.045 52.5466C144.045 52.5998 144.035 52.6524 144.014 52.7014C143.993 52.7505 143.963 52.795 143.925 52.8325C143.886 52.8699 143.841 52.8995 143.791 52.9196C143.741 52.9397 143.688 52.9498 143.634 52.9495Z" fill="#66A9FC"/>
<path d="M165.16 53.0838H148.191C148.083 53.083 147.98 53.0403 147.904 52.9648C147.828 52.8893 147.785 52.7873 147.785 52.6809C147.785 52.5746 147.828 52.4725 147.904 52.397C147.98 52.3216 148.083 52.2788 148.191 52.2781H165.16C165.214 52.2777 165.267 52.2879 165.317 52.308C165.367 52.328 165.413 52.3577 165.451 52.3951C165.489 52.4325 165.519 52.4771 165.54 52.5261C165.561 52.5752 165.571 52.6278 165.571 52.6809C165.571 52.7341 165.561 52.7867 165.54 52.8357C165.519 52.8848 165.489 52.9293 165.451 52.9667C165.413 53.0042 165.367 53.0338 165.317 53.0539C165.267 53.074 165.214 53.0841 165.16 53.0838Z" fill="#66A9FC"/>
<path d="M186.686 53.218H169.717C169.609 53.2173 169.506 53.1745 169.43 53.0991C169.354 53.0236 169.311 52.9216 169.311 52.8152C169.311 52.7088 169.354 52.6068 169.43 52.5313C169.506 52.4558 169.609 52.4131 169.717 52.4124H186.686C186.794 52.4131 186.897 52.4558 186.973 52.5313C187.049 52.6068 187.092 52.7088 187.092 52.8152C187.092 52.9216 187.049 53.0236 186.973 53.0991C186.897 53.1745 186.794 53.2173 186.686 53.218Z" fill="#66A9FC"/>
<path d="M113.586 49.1079C115.328 49.1079 116.74 47.7162 116.74 45.9995C116.74 44.2828 115.328 42.8911 113.586 42.8911C111.844 42.8911 110.432 44.2828 110.432 45.9995C110.432 47.7162 111.844 49.1079 113.586 49.1079Z" fill="#66A9FC"/>
<path d="M135.242 49.1079C136.984 49.1079 138.396 47.7162 138.396 45.9995C138.396 44.2828 136.984 42.8911 135.242 42.8911C133.5 42.8911 132.088 44.2828 132.088 45.9995C132.088 47.7162 133.5 49.1079 135.242 49.1079Z" fill="#66A9FC"/>
<path d="M156.898 49.1079C158.64 49.1079 160.052 47.7162 160.052 45.9995C160.052 44.2828 158.64 42.8911 156.898 42.8911C155.156 42.8911 153.744 44.2828 153.744 45.9995C153.744 47.7162 155.156 49.1079 156.898 49.1079Z" fill="#66A9FC"/>
<path d="M178.554 49.1079C180.296 49.1079 181.708 47.7162 181.708 45.9995C181.708 44.2828 180.296 42.8911 178.554 42.8911C176.812 42.8911 175.4 44.2828 175.4 45.9995C175.4 47.7162 176.812 49.1079 178.554 49.1079Z" fill="#66A9FC"/>
</g>
<defs>
<clipPath id="clip0_71_1812">
<rect width="200" height="131" fill="white" transform="translate(0 24)"/>
</clipPath>
</defs>
</svg>
