<svg width="172" height="207" viewBox="0 0 172 207" fill="none" xmlns="http://www.w3.org/2000/svg">
<g clip-path="url(#clip0_71_1853)">
<path d="M109.704 61.4354H100.552V139.178C100.552 140.398 100.311 141.606 99.8429 142.732C99.3744 143.859 98.6878 144.883 97.8221 145.746C96.9565 146.608 95.9289 147.292 94.7979 147.759C93.6669 148.226 92.4547 148.466 91.2306 148.466H21.262V148.555C21.262 149.775 21.5031 150.983 21.9715 152.11C22.44 153.237 23.1266 154.26 23.9923 155.123C24.8579 155.985 25.8855 156.67 27.0165 157.136C28.1475 157.603 29.3597 157.843 30.5838 157.843H109.704C110.928 157.843 112.14 157.603 113.271 157.136C114.402 156.67 115.43 155.985 116.296 155.123C117.161 154.26 117.848 153.237 118.316 152.11C118.785 150.983 119.026 149.775 119.026 148.555V70.7237C119.026 68.2603 118.044 65.8978 116.296 64.1559C114.548 62.414 112.176 61.4354 109.704 61.4354Z" fill="#F2F2F2"/>
<path d="M153.087 184.98C153.25 184.988 153.41 184.945 153.547 184.859C153.684 184.772 153.791 184.646 153.854 184.497C153.916 184.348 153.931 184.183 153.897 184.025C153.862 183.867 153.78 183.724 153.661 183.614L153.607 183.399C153.614 183.382 153.621 183.365 153.628 183.348C153.791 182.964 154.065 182.636 154.414 182.407C154.764 182.177 155.173 182.055 155.592 182.057C156.011 182.058 156.42 182.183 156.767 182.415C157.115 182.648 157.386 182.977 157.546 183.362C158.187 184.9 159.003 186.441 159.204 188.067C159.293 188.786 159.255 189.514 159.094 190.22C160.599 186.949 161.381 183.393 161.386 179.794C161.386 178.891 161.336 177.989 161.235 177.091C161.151 176.355 161.036 175.625 160.888 174.899C160.081 170.964 158.349 167.276 155.834 164.137C154.616 163.475 153.632 162.457 153.013 161.221C152.789 160.776 152.63 160.302 152.542 159.812C152.68 159.83 153.06 157.746 152.957 157.618C153.148 157.329 153.491 157.185 153.7 156.902C154.739 155.498 156.171 155.743 156.919 157.652C158.516 158.455 158.532 159.787 157.552 161.068C156.928 161.883 156.842 162.986 156.295 163.859C156.352 163.93 156.41 164 156.466 164.072C157.495 165.39 158.392 166.805 159.144 168.298C158.961 166.626 159.179 164.934 159.78 163.363C160.39 161.898 161.532 160.665 162.538 159.398C162.804 159.058 163.165 158.804 163.576 158.669C163.987 158.533 164.428 158.522 164.846 158.636C165.263 158.751 165.637 158.986 165.92 159.313C166.203 159.639 166.382 160.041 166.436 160.469C166.438 160.488 166.44 160.507 166.442 160.525C166.293 160.609 166.146 160.698 166.003 160.793C165.823 160.912 165.684 161.083 165.604 161.283C165.523 161.483 165.505 161.702 165.552 161.913C165.599 162.123 165.708 162.314 165.866 162.462C166.023 162.609 166.222 162.705 166.436 162.738L166.458 162.741C166.404 163.278 166.31 163.81 166.176 164.332C167.467 169.304 164.681 171.115 160.703 171.196C160.616 171.241 160.53 171.286 160.442 171.328C161.197 173.461 161.671 175.682 161.852 177.937C161.954 179.267 161.948 180.603 161.834 181.932L161.84 181.885C162.128 180.407 162.92 179.073 164.08 178.109C165.804 176.699 168.24 176.179 170.099 175.045C170.297 174.918 170.527 174.851 170.762 174.85C170.997 174.85 171.227 174.916 171.425 175.042C171.623 175.167 171.781 175.346 171.881 175.558C171.98 175.771 172.016 176.007 171.985 176.239L171.978 176.288C171.701 176.401 171.431 176.53 171.17 176.676C171.02 176.76 170.874 176.849 170.731 176.943C170.551 177.063 170.412 177.234 170.331 177.434C170.251 177.634 170.233 177.853 170.279 178.064C170.326 178.274 170.436 178.465 170.593 178.613C170.751 178.76 170.95 178.856 171.164 178.889L171.185 178.892C171.201 178.895 171.215 178.897 171.23 178.899C170.757 180.026 170.092 181.063 169.265 181.966C168.458 186.306 164.993 186.718 161.286 185.454H161.284C160.878 187.215 160.288 188.929 159.526 190.568H153.245C153.222 190.499 153.202 190.427 153.182 190.357C153.763 190.394 154.347 190.359 154.92 190.254C154.454 189.684 153.988 189.11 153.522 188.54C153.511 188.53 153.502 188.518 153.493 188.507C153.256 188.215 153.017 187.926 152.781 187.634L152.781 187.634C152.768 186.74 152.872 185.848 153.087 184.98Z" fill="#F2F2F2"/>
<path d="M83.9066 50.8602C84.1359 51.2064 84.4379 51.4988 84.7918 51.7172C85.1457 51.9357 85.543 52.0749 85.9562 52.1253C86.3694 52.1757 86.7887 52.136 87.185 52.0091C87.5813 51.8822 87.9453 51.671 88.2516 51.3901L101.31 57.2605L103.828 54.0607L88.2668 47.2013C87.754 46.7227 87.0828 46.4481 86.3804 46.4296C85.6779 46.4112 84.9931 46.6501 84.4557 47.1011C83.9182 47.5521 83.5655 48.1838 83.4643 48.8767C83.3631 49.5695 83.5204 50.2753 83.9066 50.8602Z" fill="#A0616A"/>
<path d="M139.949 54.5207L141.244 61.8336C141.305 62.1748 141.293 62.5248 141.209 62.8611C141.126 63.1975 140.973 63.5127 140.76 63.7867C140.547 64.0606 140.279 64.2872 139.973 64.4518C139.668 64.6164 139.33 64.7155 138.984 64.7427L116.976 66.4671L91.1074 54.9312L94.1971 49.0871L116.654 56.1728L139.949 54.5207Z" fill="#66A9FC"/>
<path d="M88.4422 49.2798H9.32188C4.17355 49.2798 0 53.4383 0 58.5681V136.399C0 141.529 4.17355 145.688 9.32188 145.688H88.4422C93.5905 145.688 97.7641 141.529 97.7641 136.399V58.5681C97.7641 53.4383 93.5905 49.2798 88.4422 49.2798Z" fill="#F2F2F2"/>
<path d="M9.32182 51.1899C8.3494 51.1899 7.3865 51.3807 6.48811 51.7515C5.58971 52.1223 4.77341 52.6658 4.08581 53.3509C3.39821 54.036 2.85277 54.8494 2.48064 55.7445C2.10852 56.6397 1.91699 57.5991 1.91699 58.568V136.4C1.91699 138.356 2.69714 140.233 4.08581 141.617C5.47449 143 7.35793 143.778 9.32182 143.778H59.8183C64.5497 143.778 69.2346 142.849 73.6058 141.045C77.977 139.241 81.9488 136.597 85.2943 133.263C88.6399 129.93 91.2937 125.972 93.1043 121.617C94.9149 117.261 95.8468 112.593 95.8468 107.879V58.568C95.8468 57.5991 95.6553 56.6397 95.2832 55.7445C94.911 54.8494 94.3656 54.036 93.678 53.3509C92.9904 52.6658 92.1741 52.1223 91.2757 51.7515C90.3773 51.3807 89.4144 51.1899 88.442 51.1899H9.32182Z" fill="white"/>
<path d="M70.9997 74.8104H26.5911C26.1836 74.8104 25.7928 74.6491 25.5047 74.362C25.2166 74.0749 25.0547 73.6855 25.0547 73.2795C25.0547 72.8734 25.2166 72.484 25.5047 72.1969C25.7928 71.9098 26.1836 71.7485 26.5911 71.7485H70.9997C71.4072 71.7485 71.798 71.9098 72.0861 72.1969C72.3743 72.484 72.5362 72.8734 72.5362 73.2795C72.5362 73.6855 72.3743 74.0749 72.0861 74.362C71.798 74.6491 71.4072 74.8104 70.9997 74.8104Z" fill="#F2F2F2"/>
<path d="M70.9997 107.457H26.5911C26.1836 107.457 25.7928 107.296 25.5047 107.008C25.2166 106.721 25.0547 106.332 25.0547 105.926C25.0547 105.52 25.2166 105.131 25.5047 104.843C25.7928 104.556 26.1836 104.395 26.5911 104.395H70.9997C71.4072 104.395 71.798 104.556 72.0861 104.843C72.3743 105.131 72.5362 105.52 72.5362 105.926C72.5362 106.332 72.3743 106.721 72.0861 107.008C71.798 107.296 71.4072 107.457 70.9997 107.457Z" fill="#F2F2F2"/>
<path d="M89.0333 91.1444H8.55794C8.15044 91.1444 7.75964 90.9831 7.4715 90.696C7.18336 90.4089 7.02148 90.0195 7.02148 89.6134C7.02148 89.2074 7.18336 88.818 7.4715 88.5309C7.75964 88.2438 8.15044 88.0825 8.55794 88.0825H89.0333C89.4408 88.0825 89.8316 88.2438 90.1197 88.5309C90.4078 88.818 90.5697 89.2074 90.5697 89.6134C90.5697 90.0195 90.4078 90.4089 90.1197 90.696C89.8316 90.9831 89.4408 91.1444 89.0333 91.1444Z" fill="#F2F2F2"/>
<path d="M137.168 86.7531L129.152 103.771L159.991 100.659L153.553 84.322L137.168 86.7531Z" fill="#A0616A"/>
<path d="M144.338 184.565L141.414 184.54L140.12 173.041L144.435 173.077L144.338 184.565Z" fill="#A0616A"/>
<path d="M134.972 189.198C134.97 189.543 135.105 189.875 135.348 190.122C135.591 190.368 135.922 190.508 136.269 190.512L142.082 190.56L143.1 188.505L143.474 190.571L145.667 190.59L145.113 183.222L144.35 183.171L141.237 182.957L140.233 182.89L140.215 184.975L135.545 188.131C135.37 188.25 135.227 188.409 135.127 188.594C135.027 188.78 134.974 188.987 134.972 189.198Z" fill="#2F2E41"/>
<path d="M111.98 184.578L109.192 183.699L111.346 172.328L115.46 173.626L111.98 184.578Z" fill="#A0616A"/>
<path d="M101.662 186.265C101.557 186.594 101.588 186.951 101.748 187.258C101.907 187.564 102.183 187.795 102.513 187.9L108.056 189.648L109.635 187.981L109.383 190.066L111.473 190.727L113.117 183.521L112.402 183.249L109.49 182.134L108.55 181.776L107.918 183.763L102.524 185.413C102.321 185.475 102.137 185.585 101.987 185.733C101.837 185.881 101.725 186.064 101.662 186.265Z" fill="#2F2E41"/>
<path d="M158.587 95.873L130.546 100.993C130.546 100.993 126.048 104.345 127.252 105.545C128.455 106.746 128.641 106.56 127.851 107.347C127.06 108.135 125.351 109.188 125.335 109.877C125.318 110.566 112.77 141.476 112.77 141.476C112.77 141.476 114.164 140.781 113.118 141.823C112.072 142.865 112.072 143.726 112.072 143.726L107.193 176.554L115.118 177.019L122.878 147.09L140.187 119.131C140.187 119.131 141.904 144.064 141.976 145.722C142.048 147.38 143.094 145.296 142.048 147.38C141.003 149.464 140.306 148.075 141.003 149.464C141.7 150.853 138.492 179.136 138.492 179.136H145.725L161.239 120.514C161.239 120.514 166.759 103.755 158.587 95.873Z" fill="#2F2E41"/>
<path d="M150.326 48.9831L139.094 47.8202L136.184 51.5847L132.794 53.3838C131.359 54.1452 130.175 55.3022 129.383 56.7164C128.591 58.1307 128.224 59.7424 128.327 61.3587L132.289 84.322C132.289 84.322 128.942 91.8304 131.243 93.6992C133.544 95.568 129.464 100.196 134.38 97.8669C139.296 95.5374 160.522 98.2142 160.522 98.2142L155.991 85.3639L159.376 72.7369L159.748 62.1492C159.818 60.1708 159.229 58.2249 158.073 56.615C156.916 55.0051 155.258 53.8216 153.356 53.249L152.883 53.1064L150.326 48.9831Z" fill="#66A9FC"/>
<path d="M165.79 40.4032C165.863 43.5577 164.68 46.6122 162.98 49.2952C162.475 47.7289 161.567 46.3034 160.621 44.9445C161.098 47.8842 160.589 50.8986 159.174 53.5214C159.124 53.5569 159.072 53.59 159.019 53.6203C157.634 54.4507 155.877 54.7871 154.378 54.1873C157.475 50.8613 157.869 45.3506 155.273 41.6199C154.538 40.5613 153.587 39.6251 153.132 38.4204C152.413 36.4983 153.104 34.3819 153.54 32.3779C153.948 30.5127 154.019 28.2932 152.763 26.9262C152.897 26.7352 153.08 26.5831 153.293 26.4856C153.505 26.3881 153.74 26.3487 153.973 26.3713C154.747 26.4803 155.311 27.1509 155.67 27.8416C156.029 28.5322 156.265 29.2977 156.766 29.8943C157.692 31.0108 159.27 31.2748 160.599 31.8633C163.819 33.2923 165.712 36.893 165.79 40.4032Z" fill="#2F2E41"/>
<path d="M82.8352 190.587C82.835 190.641 82.8456 190.695 82.8664 190.745C82.8872 190.795 82.9178 190.841 82.9563 190.879C82.9949 190.918 83.0407 190.948 83.0911 190.969C83.1415 190.99 83.1955 191 83.25 191H171.536C171.646 191 171.752 190.956 171.83 190.879C171.907 190.801 171.951 190.696 171.951 190.587C171.951 190.477 171.907 190.372 171.83 190.295C171.752 190.217 171.646 190.173 171.536 190.173H83.25C83.1955 190.173 83.1415 190.184 83.0911 190.205C83.0407 190.225 82.9949 190.256 82.9563 190.294C82.9178 190.333 82.8872 190.378 82.8665 190.428C82.8457 190.479 82.835 190.532 82.8352 190.587Z" fill="#CCCCCC"/>
<path d="M166.485 113.517C168.217 113.517 169.622 112.117 169.622 110.391C169.622 108.665 168.217 107.265 166.485 107.265C164.752 107.265 163.348 108.665 163.348 110.391C163.348 112.117 164.752 113.517 166.485 113.517Z" fill="#66A9FC"/>
<path d="M138.687 38.5995C138.871 37.9578 137.602 41.8803 138.214 41.9511C141.002 42.2697 144.828 43.9283 146.769 44.7021C146.857 44.692 146.944 44.6819 147.029 44.6692C147.237 44.6465 147.44 44.6136 147.641 44.5757C152.161 43.7235 153.9 36.8047 153.9 36.7415C153.9 36.4305 153.15 27.8877 151.97 27.7613C151.66 27.7278 151.349 27.7109 151.037 27.7107H148.108C147.502 27.5806 146.888 27.4919 146.27 27.4452H146.264C140.368 26.9976 135.72 30.5783 136.154 34.9354C136.157 34.9404 136.162 34.9455 136.164 34.9505C136.29 35.1377 136.401 35.3147 136.499 35.4841C136.594 35.6434 136.674 35.7951 136.743 35.9393C137.28 37.0519 135.899 38.452 136.815 38.7133C138.033 39.0609 133.611 50.4847 138.433 50.4847C136.087 51.1491 138.179 40.3696 138.687 38.5995Z" fill="#2F2E41"/>
<path d="M143.95 45.3025C147.78 45.3025 150.884 42.2092 150.884 38.3934C150.884 34.5776 147.78 31.4843 143.95 31.4843C140.12 31.4843 137.016 34.5776 137.016 38.3934C137.016 42.2092 140.12 45.3025 143.95 45.3025Z" fill="#A0616A"/>
<path d="M136.154 35.3121C136.27 35.3728 136.383 35.4284 136.499 35.4841C136.619 35.5422 136.74 35.6004 136.861 35.6535C139.183 36.7029 141.073 36.8193 142.22 35.3121C142.25 34.5191 142.429 33.7387 142.747 33.011C142.691 33.8243 142.906 34.6332 143.359 35.3121H145.668C148.046 36.885 149.268 37.0494 147.617 42.2131C147.157 43.6519 145.327 52.0246 146.046 53.2663C146.255 53.2435 148.471 44.0728 148.671 44.0349C153.191 43.1827 156.064 35.7622 155.696 35.3425C155.698 34.1488 155.422 32.9708 154.891 31.9008C154.219 30.5453 153.172 29.4098 151.872 28.6287C151.098 28.2545 150.291 27.9523 149.46 27.7259C149.44 27.7208 149.422 27.7158 149.401 27.7107C149.147 27.6424 148.887 27.5792 148.627 27.5261C148.091 27.4132 147.548 27.3313 147.002 27.2808C146.964 27.2783 146.925 27.2758 146.889 27.2758C146.671 27.2763 146.457 27.3348 146.27 27.4452C146.267 27.4452 146.267 27.4477 146.264 27.4477C146.13 27.5258 146.013 27.6299 145.92 27.7537C145.756 27.962 145.667 28.2196 145.668 28.4845H143.097C143.001 28.4845 142.906 28.487 142.811 28.4921C141.095 28.5505 139.463 29.2449 138.233 30.4394C137.004 31.634 136.266 33.2426 136.164 34.9505C136.157 35.0719 136.154 35.1907 136.154 35.3121Z" fill="#2F2E41"/>
<path d="M151.315 33.1035C153.838 33.1035 155.883 31.0656 155.883 28.5517C155.883 26.0379 153.838 24 151.315 24C148.792 24 146.747 26.0379 146.747 28.5517C146.747 31.0656 148.792 33.1035 151.315 33.1035Z" fill="#2F2E41"/>
<path d="M166.52 111.68C166.743 111.329 166.887 110.935 166.942 110.524C166.997 110.113 166.961 109.695 166.838 109.298C166.715 108.902 166.507 108.537 166.228 108.229C165.95 107.921 165.607 107.677 165.225 107.513L165.247 93.2388L161.286 92.2618L161.384 109.216C161.156 109.878 161.179 110.601 161.45 111.247C161.721 111.893 162.22 112.418 162.854 112.721C163.487 113.025 164.21 113.087 164.885 112.895C165.561 112.703 166.143 112.27 166.52 111.68Z" fill="#A0616A"/>
<path d="M146.905 59.2433L153.069 55.0693C153.356 54.8745 153.681 54.7419 154.023 54.6798C154.366 54.6177 154.717 54.6276 155.055 54.7088C155.393 54.79 155.71 54.9407 155.986 55.1513C156.262 55.3619 156.491 55.6277 156.658 55.9316L167.255 75.2272L167.296 103.467L160.68 103.053L157.964 79.7391L146.905 59.2433Z" fill="#66A9FC"/>
<path d="M99.5641 123.286H33.6866C32.2537 123.286 30.8795 123.853 29.8663 124.863C28.8531 125.872 28.2839 127.242 28.2839 128.669C28.2839 130.097 28.8531 131.466 29.8663 132.476C30.8795 133.485 32.2537 134.053 33.6866 134.053H99.5641C100.997 134.053 102.371 133.485 103.384 132.476C104.398 131.466 104.967 130.097 104.967 128.669C104.967 127.242 104.398 125.872 103.384 124.863C102.371 123.853 100.997 123.286 99.5641 123.286Z" fill="white"/>
<path d="M99.564 134.4H33.6865C32.1612 134.4 30.6984 133.796 29.6198 132.721C28.5412 131.647 27.9353 130.189 27.9353 128.669C27.9353 127.15 28.5412 125.692 29.6198 124.617C30.6984 123.543 32.1612 122.939 33.6865 122.939H99.564C101.089 122.939 102.552 123.543 103.631 124.617C104.709 125.692 105.315 127.15 105.315 128.669C105.315 130.189 104.709 131.647 103.631 132.721C102.552 133.796 101.089 134.4 99.564 134.4ZM33.6865 123.633C32.3461 123.633 31.0606 124.164 30.1127 125.108C29.1649 126.053 28.6324 127.334 28.6324 128.669C28.6324 130.005 29.1649 131.286 30.1127 132.23C31.0606 133.175 32.3461 133.705 33.6865 133.705H99.564C100.904 133.705 102.19 133.175 103.138 132.23C104.086 131.286 104.618 130.005 104.618 128.669C104.618 127.334 104.086 126.053 103.138 125.108C102.19 124.164 100.904 123.633 99.564 123.633H33.6865Z" fill="#66A9FC"/>
<path d="M103.449 146.779H74.3768C73.9693 146.779 73.5785 146.617 73.2903 146.33C73.0022 146.043 72.8403 145.654 72.8403 145.248C72.8403 144.842 73.0022 144.452 73.2903 144.165C73.5785 143.878 73.9693 143.717 74.3768 143.717H103.449C103.856 143.717 104.247 143.878 104.535 144.165C104.823 144.452 104.985 144.842 104.985 145.248C104.985 145.654 104.823 146.043 104.535 146.33C104.247 146.617 103.856 146.779 103.449 146.779Z" fill="#66A9FC"/>
</g>
<defs>
<clipPath id="clip0_71_1853">
<rect width="172" height="167" fill="white" transform="translate(0 24)"/>
</clipPath>
</defs>
</svg>
